<?xml version="1.0" standalone="no"?><!DOCTYPE svg PUBLIC "-//W3C//DTD SVG 1.1//EN" "http://www.w3.org/Graphics/SVG/1.1/DTD/svg11.dtd"><svg t="1777988859887" class="icon" viewBox="0 0 1024 1024" version="1.1" xmlns="http://www.w3.org/2000/svg" p-id="10902" xmlns:xlink="http://www.w3.org/1999/xlink" width="200" height="200"><path d="M687.108447 230.848953c-82.31527-47.455579-82.31527-166.738521 0-214.194101s185.766353 12.185892 185.766353 107.097051-103.453083 154.55063-185.766353 107.09705z m-120.61893-160.564576H15.004407v34.299696h551.48511v-34.299696zM263.8422 205.465178H15.004407v30.265732h248.839793v-30.265732z m20.177822 351.066887H15.004407v32.281714h269.017615v-32.279714z m-84.741249 123.074909H15.004407v32.281714h184.276366v-32.279714zM166.527063 1008.638056c26.841762-37.719666 244.471832-352.572874 275.391558-360.128806 31.349722 8.667923 95.367154 27.519756 90.2832 36.751674-6.465943 11.739896-70.053379 95.341155-74.49934 117.578957-4.449961 22.239803 28.909744 83.397261 81.059282 45.405597s165.998528-179.950404 153.766636-213.308108c-12.231892-33.359704-84.775248-81.613276-165.886529-114.530985-2.22398-5.559951 58.933477-65.603418 91.179192-121.200925 6.033946-10.403908 116.754965 132.320827 152.336649 125.648886 53.951522-10.11591 223.708016-153.448639 233.713927-181.246393 10.007911-27.799753-1.317988-60.045468-38.405659-85.489242-37.087671-25.443774-130.81484 132.190828-188.638327 125.518887-38.659657-4.45996-64.017432-96.713142-155.67062-153.448639-80.407287-49.773559-205.346179-67.883398-235.917908-64.067432-34.489694 4.305962-117.678957 81.859274-231.097951 201.948209-36.855673 39.021654 42.425624 109.763027 75.61133 85.619241 100.429109-73.063352 162.884556-163.870547 185.894351-163.048554 23.009796 0.819993 77.719311 31.029725 77.719311 31.029725S120.559471 847.125488 80.749824 926.266787c-43.599613 86.689231 58.935477 120.090935 85.777239 82.371269z" fill="#F2870B" p-id="10903"></path></svg>